# xmcd
#
# Track frame offsets: 
#        150
#        12865
#        31085
#        47667
#        64172
#        80535
#        97387
#        111442
#        127812
#        141107
#
# Disc length: 2107 seconds
#
# Revision: 0
# Processed by: cddbd v1.5.2PL0 Copyright (c) Steve Scherf et al.
# Submitted via: ExactAudioCopy v0.99pb5
#
DISCID=8308390a
DTITLE=Exile and Shenandoah - Back to Back: Exile and Shenandoah
DYEAR=2000
DGENRE=Country
TTITLE0=Give Me One More Chance
TTITLE1=Sunday in the South
TTITLE2=I Don't Want to Be a Memory
TTITLE3=Next to You, Next to Me
TTITLE4=She's a Miracle
TTITLE5=Two Dozen Roses
TTITLE6=Woke up in Love
TTITLE7=Ghost in the House
TTITLE8=It'll Be Me
TTITLE9=I Got You
EXTD=
EXTT0=
EXTT1=
EXTT2=
EXTT3=
EXTT4=
EXTT5=
EXTT6=
EXTT7=
EXTT8=
EXTT9=
PLAYORDER=
